<?xml version="1.0" encoding="UTF-8" standalone="no"?>
<!-- Created with Inkscape (http://www.inkscape.org/) -->

<svg
   xmlns:dc="http://purl.org/dc/elements/1.1/"
   xmlns:cc="http://creativecommons.org/ns#"
   xmlns:rdf="http://www.w3.org/1999/02/22-rdf-syntax-ns#"
   xmlns:svg="http://www.w3.org/2000/svg"
   xmlns="http://www.w3.org/2000/svg"
   version="1.1"
   width="335.21805"
   height="200.25"
   viewBox="0 0 268.17444 160.2"
   id="svg2">
  <metadata
     id="metadata56">
    <rdf:RDF>
      <cc:Work
         rdf:about="">
        <dc:format>image/svg+xml</dc:format>
        <dc:type
           rdf:resource="http://purl.org/dc/dcmitype/StillImage" />
        <dc:title></dc:title>
      </cc:Work>
    </rdf:RDF>
  </metadata>
  <defs
     id="defs54" />
  <path
     d="m 173.65212,2.4212284 0.45622,0 c 0.40397,0.2230864 0.88432,0.6150005 0.67932,1.1395601 -0.30549,0.4059759 -0.7577,0.6793062 -1.025,1.1134249 -2.06206,3.6658755 -3.53524,7.6251846 -5.56917,11.3031146 -0.17082,0.335638 -0.33161,0.673284 -0.49038,1.012937 0.47833,0.440151 0.94058,0.900395 1.35862,1.400836 1.50534,0.25122 3.10112,0.476323 4.39343,1.344551 1.17372,1.04108 1.50735,2.69716 1.67416,4.18642 0.14068,2.100236 0.19495,4.242687 -0.23917,6.312782 -0.28539,1.338529 -1.19784,2.482104 -2.39568,3.127245 -0.3899,0.707449 -0.79789,1.473181 -1.53548,1.86911 -1.56564,0.82804 -3.38049,0.918481 -5.11494,0.908435 -1.88319,-0.02415 -3.78246,0.100487 -5.64553,-0.245198 -2.09823,-0.291416 -4.28489,-0.643133 -6.07563,-1.857056 -0.71951,-0.464259 -1.15965,-1.221952 -1.61186,-1.927393 0.3075,2.001755 0.73157,3.985435 1.17975,5.959057 1.70633,-0.299465 3.41466,-0.592889 5.13102,-0.82804 4.30902,-0.619015 8.68234,-0.446173 13.01144,-0.156764 0.21304,-0.351717 0.29344,-0.874259 0.72956,-1.025001 0.71549,-0.285384 1.48123,-0.403968 2.21682,-0.62304 -0.0181,-0.578818 -0.10452,-1.1697 0.0281,-1.738472 0.74765,-0.514513 1.6621,-0.697402 2.51828,-0.952646 2.66097,-0.637102 5.28176,-1.443041 7.98494,-1.889214 4.27283,-0.637101 8.5738,-1.461127 12.91497,-1.175732 0.33965,0.03414 0.83005,0.124606 0.86824,0.548677 0.3276,1.73245 0.13465,3.513127 0.32558,5.259648 0.41804,9.307382 0.81196,18.628834 1.92941,27.883964 1.49931,0.02007 2.9946,-0.140685 4.48387,-0.309512 2.74337,-0.192937 5.49479,-0.200976 8.24218,-0.283378 0.37584,0.0078 1.025,0 0.94863,0.552693 0.0302,3.077001 -0.0482,6.158026 0.0884,9.233019 -0.0201,4.041711 0.1648,8.093469 -0.15677,12.12714 -0.80994,0.331614 -1.68421,0.410001 -2.54842,0.452205 0.0965,0.731567 0.15475,1.465142 0.20299,2.202741 -3.0368,0.572787 -6.10979,0.94259 -9.18277,1.262149 -5.27774,0.63108 -10.57959,1.00289 -15.88547,1.306371 -3.32019,0.104512 -6.58611,0.880292 -9.91434,0.854166 -0.80392,-2.01382 -1.26014,-4.152246 -1.54554,-6.296703 -2.2771,0.13667 -4.54616,0.367795 -6.81523,0.604953 -4.09798,0.233134 -8.21204,-0.0039 -12.27585,-0.564756 -1.28427,-0.178875 -2.51829,0.325591 -3.75431,0.590882 -3.57343,0.976764 -7.26141,1.406859 -10.90317,2.037938 -2.24896,0.225094 -4.49793,0.512496 -6.75493,0.633087 -1.34256,-5.806319 -1.11344,-11.837721 -2.23089,-17.684237 -0.8019,1.25412 -1.56563,2.53034 -2.24695,3.85279 -0.28941,0.526567 -0.53863,1.10137 -0.99084,1.515385 -0.48837,0.329616 -0.94661,-0.198968 -1.35661,-0.40999 -0.33965,0.974747 -0.49039,2.066071 -1.23402,2.84185 -1.45308,-1.716371 -2.84788,-3.478962 -4.07788,-5.362143 -0.13666,2.017834 -0.2874,4.037686 -0.38588,6.059545 -0.21304,1.696268 0.002,3.454843 -0.53662,5.104892 -0.6572,0.0643 -1.31641,0.08641 -1.97362,0.09048 -0.17083,0.884316 -0.0603,1.86108 -0.43412,2.681071 -1.78068,0.257261 -3.56337,-0.142692 -5.34004,-0.247204 -3.54729,-0.202984 -7.08455,-0.558725 -10.62983,-0.779804 -0.93455,-0.07234 -1.87112,-0.231126 -2.80769,-0.1447 -0.85818,0.221079 -1.551564,0.809944 -2.305239,1.248088 -1.824899,1.179747 -3.897003,1.873134 -5.816362,2.869993 -1.953526,0.992843 -4.01156,1.834945 -6.196213,2.134401 -0.263284,-1.993717 -0.645146,-3.971364 -1.127498,-5.922876 -0.739606,-3.028773 -0.960684,-6.166065 -1.832938,-9.160674 -1.20186,0.325592 -2.385633,0.705442 -3.579453,1.04912 -0.30951,3.647789 0.08643,7.313664 0.09245,10.969493 -0.619018,0.0161 -1.238037,0.0321 -1.857055,0.03821 -0.02813,0.703434 -0.09446,1.406859 -0.190931,2.106268 -0.50446,0.05227 -1.010929,0.06236 -1.513379,0.0039 C 70.79652,90.201201 64.56413,89.590225 58.514631,88.05875 c -0.409999,-0.07836 -0.765733,-0.295441 -1.09936,-0.534606 -0.665244,-3.983418 0.291421,-7.97087 0.556714,-11.944241 0.06432,-2.437882 0.570783,-4.831561 0.771764,-7.255382 0.691371,-4.208521 1.143576,-8.455222 1.90328,-12.653697 0.701421,-3.599553 1.497301,-7.185034 2.488132,-10.716257 0.552696,-2.08215 1.163675,-4.152245 1.591763,-6.264545 -1.201861,0.108527 -2.407741,0.259268 -3.563376,0.617008 0.136666,0.834072 0.29544,1.664119 0.454214,2.496174 -1.535487,0.383875 -3.125239,0.446173 -4.686853,0.66926 -3.756316,0.570788 -7.53474,1.103387 -11.192577,2.160536 -1.877153,0.558725 -3.790482,1.025001 -5.603322,1.772647 -0.337646,1.453088 -0.205,2.966466 -0.0824,4.439648 3.302101,-0.988819 6.668517,-1.744505 9.978658,-2.711222 1.115439,-0.293434 2.234897,-0.703425 3.404601,-0.637102 0.592891,1.256127 0.870243,2.630828 1.356615,3.927142 1.107399,3.018727 1.927398,6.129893 2.733328,9.239051 0.448185,1.764608 1.141566,3.476954 1.296321,5.305877 -0.627058,0.28137 -1.264165,0.534607 -1.91132,0.765733 0.30348,0.713481 0.60093,1.435001 0.787841,2.192694 -3.740238,1.256127 -7.601064,2.160536 -11.260909,3.655828 -1.432987,0.608969 -3.000631,0.982787 -4.272835,1.91534 -0.03819,0.06226 -0.116568,0.190929 -0.156765,0.253227 -0.19897,1.346568 0.08441,2.69716 0.156765,4.041711 0.237156,2.55245 0.524558,5.102884 0.888332,7.643271 0.422058,2.363519 0.566763,4.761214 0.884311,7.138805 -1.155634,0.315545 -2.325338,0.576821 -3.493032,0.844119 0.09447,0.781811 0.235147,1.5576 0.345686,2.339411 -2.962445,0.741614 -5.953028,1.485236 -9.017973,1.646024 -2.874014,0.233133 -5.741999,0.586858 -8.628072,0.677299 -2.395681,0.198978 -4.797392,-0.192937 -7.193073,0.03016 -1.051126,0.07234 -2.108281,0.04422 -3.149358,-0.126614 C 12.59277,98.547952 12.387771,98.103786 12.259144,97.635503 11.18792,93.03306 9.8373346,88.492925 8.9610617,83.844262 8.0667008,79.290046 7.230624,74.721778 6.5372429,70.131389 6.0167047,66.666499 5.4258235,63.207631 5.1806279,59.708566 4.9575401,56.553179 4.6018055,53.403823 4.5475409,50.238389 4.2842571,45.605806 4.1958259,40.96718 4.0531301,36.330572 l 0,-1.913332 c 0.058284,-1.648031 0.10049,-3.296072 0.1527448,-4.944103 0.1024998,-0.824016 0.1467154,-1.706324 0.5748028,-2.435874 0.6873516,-0.645151 1.7304379,-0.584851 2.5584754,-0.962694 0.1627939,-0.797899 0.042206,-1.774654 0.6853419,-2.383623 0.9144589,-0.912449 2.126368,-1.432993 3.290043,-1.947497 2.982543,-1.248087 5.965086,-2.508229 9.052139,-3.478971 2.052006,-0.647148 4.087933,-1.346558 6.170086,-1.891221 2.592643,-0.614991 5.177245,-1.270189 7.796015,-1.76259 5.884694,-1.10941 11.793506,-2.118333 17.746534,-2.785584 3.368425,-0.259269 6.758958,-0.834063 10.139441,-0.460245 0.221078,0.619016 0.353725,1.266174 0.41201,1.921372 0.229116,2.17259 0.444165,4.345181 0.673282,6.517782 0.864214,5.981159 1.469164,12.000517 1.784703,18.033936 0.69941,-1.79274 0.970733,-3.720144 1.650045,-5.516909 0.466274,-0.749653 1.549556,-0.285384 2.230878,-0.639109 0.293431,-0.785836 0.289411,-1.778679 1.008921,-2.333379 1.374702,-0.371811 2.829797,-0.255244 4.234648,-0.454212 2.470044,-0.08641 4.948128,-0.327599 7.418172,-0.100498 1.40887,0.04626 2.80769,0.247205 4.21656,0.295441 2.843867,0.154757 5.643519,0.689363 8.461258,1.073238 0.387892,0.08243 0.838087,0.142692 1.099361,0.480338 0.60696,0.723527 0.948625,1.619898 1.334507,2.472056 1.016959,-0.263283 2.029898,-0.538621 3.02475,-0.876276 0.243182,-0.745629 0.217058,-1.883182 1.155632,-2.112301 2.41176,-0.785826 4.95014,-1.04107 7.4443,-1.441023 3.26794,-0.401961 6.57406,-0.416023 9.85807,-0.209015 0.31956,0.0019 0.62907,0.152739 0.82803,0.405976 0.56476,0.687355 0.95668,1.493284 1.42897,2.242938 1.49128,2.405734 3.09309,4.74112 4.71097,7.062435 1.16368,-2.709204 1.77466,-5.613372 2.83785,-8.360767 1.03705,-0.229118 2.10224,-0.04422 3.14935,-0.150731 0.43211,-0.458237 0.59893,-1.087309 0.85015,-1.648041 1.15563,-0.02008 2.31328,0.0161 3.4649,-0.100488 2.07812,-0.17485 4.15224,0.128631 6.23038,0.09649 3.27999,0.0039 6.51778,0.586858 9.76963,0.930536 -0.13265,-2.092207 -0.012,-4.228625 0.66324,-6.226366 0.27735,-0.791858 0.5145,-1.69426 1.23803,-2.204748 0.78383,-0.546661 1.71235,-0.820001 2.59064,-1.169701 1.36063,-0.532599 2.80367,-0.898378 4.27685,-0.832055 0.42005,-0.498434 0.84813,-0.992844 1.29833,-1.467159 -1.99171,-3.627686 -3.72617,-7.3880273 -5.52293,-11.1141936 -0.26328,-0.604944 -0.96873,-1.0209764 -0.94461,-1.7264179 0.32157,-0.4763232 0.92652,-0.8159763 1.50937,-0.6210229 0.49038,0.1949436 0.19494,0.832055 0.34366,1.2259766 1.59378,4.0396937 3.80054,7.7940028 5.55912,11.7593348 1.35862,-0.403969 2.7916,-0.410001 4.16631,-0.07031 2.22284,-3.868868 4.00754,-7.9648378 5.947,-11.9784156 0.38387,-0.6833307 0.34971,-1.6158736 1.03103,-2.1082756 z"
     id="path6"
     style="fill:#010303" />
  <path
     d="m 49.48667,13.577626 c 3.876905,-0.494409 7.765868,-1.085292 11.684977,-0.996858 0.190932,1.903285 0.39995,3.804553 0.566764,5.709845 0.683332,5.227491 1.453086,10.450957 1.796761,15.71462 0.10451,1.091323 0.10853,2.190686 0.269313,3.277986 -3.61563,0.675291 -7.297583,0.914456 -10.937331,1.437008 -3.396562,0.522553 -6.73283,1.362647 -10.046991,2.25701 -1.171713,0.381858 -2.40372,0.619015 -3.509111,1.187787 -0.19093,0.114559 -0.420048,0.215047 -0.518528,0.432111 -0.351715,1.043078 -0.229118,2.162544 -0.263284,3.245819 -0.05628,1.86912 -0.0824,3.740237 -0.03819,5.609357 0.01206,0.371811 0.130638,0.856174 0.538628,0.97274 0.854165,0.05828 1.688231,-0.188921 2.498181,-0.428086 1.762594,-0.536614 3.569404,-0.902403 5.364156,-1.31441 1.867104,-0.498425 3.704062,-1.111418 5.591264,-1.537497 0.365784,1.308378 0.761714,2.608727 1.260145,3.872883 0.884311,2.299214 1.535487,4.678822 2.112299,7.072492 0.450195,1.652056 0.976763,3.286016 1.434997,4.938072 -4.614501,1.581718 -9.33954,2.837845 -13.871639,4.654704 -0.729558,0.301463 -1.487253,0.530582 -2.20877,0.852149 -0.701421,0.295441 -0.862204,1.147599 -0.870244,1.828922 -0.06833,6.777042 1.053135,13.481738 1.877153,20.188442 -3.087053,0.50848 -6.103763,1.422937 -9.231012,1.676174 -2.341417,0.205 -4.678814,0.502449 -7.03028,0.560732 -3.038818,0.01406 -6.083664,0.313527 -9.116453,0.0019 C 15.38438,89.927858 14.357372,84.953595 13.286149,79.997437 12.924385,78.463955 12.761591,76.888269 12.319435,75.372883 11.320564,72.036614 11.222084,68.527502 10.631203,65.112856 10.468409,63.219617 10.122723,61.350507 9.9237531,59.463301 9.5740479,55.863758 9.1761075,52.266212 8.9891961,48.652588 8.6937554,43.63613 8.4485599,38.603593 8.7198828,33.579095 c 0.024117,-2.683089 0.072353,-5.368185 0.3195583,-8.041217 0.09647,-1.033031 1.2159289,-1.412891 1.9937219,-1.851024 7.908563,-3.969356 16.492418,-6.471553 25.206912,-7.894491 4.381364,-0.928528 8.802924,-1.664119 13.246592,-2.214805 z"
     id="path10"
     style="fill:#00a0d4" />
  <path
     d="m 161.76013,18.236345 c 1.04911,-1.201858 2.79965,-1.232009 4.25676,-0.984804 0.76372,0.116567 1.38475,0.617008 1.92539,1.13956 -2.06005,-0.05431 -4.12412,-0.04218 -6.18215,-0.154756 z"
     id="path12"
     style="fill:#a99a83" />
  <path
     d="m 160.13019,19.494479 c 2.23489,-0.144709 4.47782,-0.331613 6.71675,-0.158771 1.52744,0.100488 3.079,0.194944 4.54817,0.66122 0.80995,0.287402 1.70833,0.685348 2.07411,1.523435 0.86824,1.951512 0.66525,4.136167 0.67932,6.216309 -0.0624,1.25411 -0.16883,2.669008 -1.03706,3.653812 -1.8671,1.640001 -4.44166,2.1726 -6.86146,2.263041 -3.0549,0.138668 -6.18013,-0.07836 -9.06621,-1.149607 -0.75166,-0.287402 -1.58774,-0.568771 -2.05602,-1.268191 -0.51853,-0.715488 -0.55269,-1.631952 -0.60294,-2.480086 -0.0643,-1.883182 -0.10652,-3.792499 0.32358,-5.641515 0.22108,-1.045095 0.59289,-2.196709 1.56161,-2.783567 1.12348,-0.647158 2.45598,-0.731567 3.72015,-0.83608 z"
     id="path14"
     style="fill:#a99a83" />
  <path
     d="m 161.47273,20.378795 c 2.12637,-0.146716 4.28288,-0.12863 6.38312,0.277346 1.07324,0.164803 1.78873,1.227993 1.83495,2.265049 0.20098,2.568519 -0.0322,5.167199 -0.61098,7.675428 -0.27534,1.057149 -1.43701,1.477196 -2.3997,1.648032 -3.10313,0.426079 -6.41931,0.301473 -9.26317,-1.125489 -1.0672,-0.550685 -1.36466,-1.881174 -1.26416,-2.984552 0.15274,-1.73245 -0.1025,-3.535238 0.51049,-5.199348 0.30749,-0.807947 0.81196,-1.617891 1.64402,-1.965583 0.99685,-0.416033 2.09622,-0.500442 3.16543,-0.590883 z"
     id="path16"
     style="fill:#010303" />
  <path
     d="m 161.15719,21.31737 c 2.07211,-0.359756 4.19847,-0.307505 6.26253,0.08243 0.36378,0.09446 0.82201,0.172842 1.01897,0.542646 0.59692,1.022984 0.5527,2.252985 0.51049,3.39656 -0.0744,1.764607 -0.11456,3.597545 -0.81195,5.249601 -0.35574,0.801905 -1.33049,0.801905 -2.06809,0.908425 -1.81083,0.17485 -3.68597,0.397946 -5.45862,-0.132646 -0.99485,-0.293434 -1.99372,-0.62304 -2.90215,-1.123481 -0.87627,-0.66926 -0.71147,-1.929401 -0.74363,-2.904158 0.1628,-1.56563 -0.1045,-3.296073 0.79991,-4.678813 0.81598,-1.000883 2.20475,-1.127496 3.39254,-1.340536 z"
     id="path18"
     style="fill:#cfd3d8" />
  <path
     d="m 171.11172,22.16148 c 0.88432,-0.560733 2.09824,0.375835 1.81888,1.376718 -0.11456,1.151614 -2.0299,1.217937 -2.36353,0.182889 -0.18892,-0.556708 -0.0322,-1.296314 0.54465,-1.559607 z"
     id="path20"
     style="fill:#010303" />
  <path
     d="m 171.47148,22.684032 c 0.22912,-0.07031 0.44618,0.08844 0.66927,0.132645 0.0542,0.128631 0.16078,0.38789 0.21505,0.51652 -0.0643,0.120592 -0.19496,0.359757 -0.25927,0.480338 -0.31554,-0.07235 -0.62303,-0.146707 -0.93254,-0.221069 0.0603,-0.313537 -0.0161,-0.717505 0.30749,-0.908434 z"
     id="path22"
     style="fill:#a99a83" />
  <path
     d="m 242.34105,24.703883 c 0.34569,-0.594906 0.70343,-1.183772 1.08329,-1.758575 1.15362,-0.09649 2.06808,0.707449 3.10513,1.063181 2.22285,0.852158 4.40951,1.808819 6.69063,2.500189 1.50333,0.44819 2.93029,1.115442 4.43563,1.5576 2.1545,0.651174 4.37132,1.105386 6.46553,1.943473 l 0,0.619025 c -1.34255,2.443914 -2.2128,5.131017 -3.77441,7.460372 -2.18666,3.129262 -4.60245,6.091703 -7.06645,9.005918 -0.9004,1.153622 -1.87113,2.244945 -2.91422,3.269946 -1.52342,1.56563 -3.06896,3.119205 -4.76925,4.493906 -0.4904,0.333631 -0.46828,0.976765 -0.55873,1.499317 -0.35372,4.861702 -0.11656,9.7415 0.24319,14.595162 0.1447,3.010688 0.41803,6.011319 0.81397,8.997879 0.0945,0.711464 0.11858,1.432984 0.0583,2.150489 -0.85015,0.301464 -1.75054,0.381858 -2.64089,0.468274 -0.0684,0.739607 0.41804,1.826916 -0.33161,2.321325 -3.58348,0.976765 -7.3418,0.822009 -11.00567,1.225977 -2.48009,0.168828 -4.9642,-0.02609 -7.44228,0.142692 -1.88118,0.01009 -3.76034,-0.10652 -5.64152,-0.118574 -0.8823,0.02609 -1.01294,-1.055141 -1.04107,-1.718378 -0.004,-2.480096 -0.11456,-4.958175 -0.11858,-7.438271 0.0362,-2.080143 -0.15073,-4.154253 -0.12058,-6.236413 -0.0302,-3.722142 0.0523,-7.44631 0.0261,-11.170469 -2.2369,-1.774654 -4.22661,-3.854797 -5.97111,-6.113804 -1.84098,-2.222845 -3.6699,-4.489901 -5.00039,-7.064453 -1.2521,-2.451953 -2.22083,-5.032537 -3.29406,-7.56087 -0.3497,-0.990826 -0.85215,-2.138425 -0.44215,-3.169449 0.51853,-0.281369 1.11142,-0.387889 1.65406,-0.612993 -0.10049,-0.982786 -0.47029,-1.989701 -0.19696,-2.972488 0.40397,-0.743631 1.30637,-0.926521 2.01784,-1.262159 2.85392,-1.264166 5.75607,-2.427835 8.7165,-3.422686 3.29205,-1.085291 6.67254,-1.86108 10.00278,-2.811709 0.76372,-0.231136 1.56764,-0.239165 2.3595,-0.223096 0.54265,1.54956 0.92853,3.149365 1.48123,4.694901 0.76975,2.252985 1.84901,4.415529 3.35234,6.272585 0.55069,-0.594907 1.10137,-1.193829 1.54554,-1.875142 0.78382,-1.201869 1.75858,-2.271081 2.46803,-3.521176 1.15362,-2.009795 2.18867,-4.087931 3.48098,-6.013317 0.83206,0.06226 1.57367,0.462252 2.32935,0.781811 z"
     id="path24"
     style="fill:#010303" />
  <path
     d="m 241.49894,29.623869 c 0.92853,-1.648032 1.81686,-3.318174 2.665,-5.008419 1.71637,0.90441 3.62568,1.322449 5.41642,2.045977 4.12008,1.662103 8.41905,2.815725 12.60345,4.294938 -1.36666,3.22975 -2.88406,6.463524 -5.17925,9.150627 -0.92452,1.099354 -1.67618,2.331362 -2.61074,3.420679 -1.31842,1.567646 -2.58862,3.177488 -3.99548,4.666758 -1.40887,1.535479 -2.99058,2.898126 -4.47784,4.353221 -0.55068,0.548678 -1.22195,0.940592 -1.86308,1.364654 -0.51451,0.245197 -0.46627,0.888331 -0.53662,1.362647 -0.30348,4.684844 -0.37784,9.395814 -0.006,14.078652 0.24921,3.903023 0.6974,7.789978 1.03103,11.686979 -4.62455,1.264167 -9.4541,1.133528 -14.19723,1.430987 -2.77352,0.07642 -5.56313,0.17485 -8.32057,-0.205 -0.45623,-2.202742 -0.46828,-4.455727 -0.57681,-6.692642 -0.14471,-3.744253 -0.12662,-7.49253 -0.0563,-11.236792 -0.006,-2.285143 0.2251,-4.562246 0.17083,-6.845372 -2.01984,-1.810836 -4.03567,-3.633718 -5.84651,-5.657594 -1.86308,-2.076118 -3.37445,-4.433615 -4.90793,-6.75493 -1.3948,-2.068089 -2.4399,-4.347199 -3.34632,-6.662492 -0.69337,-1.86911 -1.29229,-3.808568 -1.38676,-5.810333 1.03907,-0.476324 2.11029,-0.880292 3.18754,-1.264167 1.91133,-0.66122 3.72015,-1.593772 5.66965,-2.152487 3.82465,-1.143585 7.56489,-2.642892 11.51013,-3.332255 0.59489,2.261025 1.32646,4.495923 2.39166,6.586113 0.96872,2.220837 2.42382,4.222593 4.22862,5.838476 0.46828,0.385882 1.05112,0.757693 1.69024,0.643134 1.24406,-1.288285 2.31931,-2.733333 3.38048,-4.176364 1.16769,-1.676174 2.42784,-3.300097 3.36239,-5.124995 z"
     id="path26"
     style="fill:#00a0d4" />
  <path
     d="m 171.168,25.867552 c 1.03304,-0.534606 2.35549,0.596914 1.84701,1.680199 -0.41603,1.049109 -2.10426,0.787843 -2.39367,-0.223087 -0.21103,-0.542646 0.012,-1.201868 0.54666,-1.457112 z"
     id="path28"
     style="fill:#010303" />
  <path
     d="m 171.35692,26.942797 c -0.0542,-0.556717 0.89436,-0.673284 1.03103,-0.138677 0.24118,0.432111 -0.19696,0.735591 -0.53059,0.900394 -0.18691,-0.227111 -0.57681,-0.407992 -0.50044,-0.761717 z"
     id="path30"
     style="fill:#a99a83" />
  <path
     d="m 132.89337,29.420886 c 2.6027,-0.207018 5.21945,-0.130638 7.82415,-0.0078 3.31819,0.08243 6.6444,0.293424 9.92239,0.838087 0.22711,1.115433 0.54867,2.208764 0.74965,3.332245 0.39593,2.281128 0.96672,4.532096 1.25613,6.833317 0.29544,3.197592 0.66524,6.393177 0.81196,9.602832 0.0603,2.419796 0.19897,4.837584 0.40196,7.24934 0.32558,2.81172 0.30749,5.647548 0.50445,8.469304 0.39192,5.17523 0.30349,10.370562 0.51452,15.553841 -3.94926,1.41289 -8.14171,1.885189 -12.25778,2.56852 -1.26014,0.178874 -2.51224,0.412017 -3.78445,0.486379 -0.9647,-6.250484 -1.10539,-12.595423 -2.16254,-18.831826 -0.0603,-0.793875 -1.13152,-1.191812 -1.74853,-0.743631 -0.51652,0.349709 -0.81196,0.92652 -1.10338,1.461127 -0.82,1.635977 -1.81485,3.175481 -2.67504,4.789356 -0.49442,0.846127 -0.91245,1.744505 -1.49932,2.534355 -0.27735,0.04025 -0.37784,-0.289409 -0.54264,-0.442158 -1.86308,-2.500189 -3.26191,-5.301852 -5.00641,-7.878412 -0.27736,-0.422064 -0.73559,-0.787843 -1.27221,-0.673284 -0.5547,0.04422 -0.78181,0.675292 -0.82803,1.14759 -0.0603,1.1476 0.0221,2.297207 -0.002,3.444797 0.0402,4.393428 -0.2271,8.784839 -0.65721,13.156156 -2.85994,-0.01406 -5.7038,-0.337646 -8.55973,-0.462252 -2.62279,-0.217064 -5.25562,-0.359756 -7.86233,-0.72956 0.90842,-0.842102 1.99572,-1.487252 2.77552,-2.466024 -0.36377,-3.364403 -0.72352,-6.728815 -1.17573,-10.08317 -0.55068,-3.884938 -1.52342,-7.693515 -2.14847,-11.564391 -0.95064,-4.785333 -2.09622,-9.538507 -3.6096,-14.17914 -0.32961,-1.328472 -1.175736,-2.638867 -0.820003,-4.04974 0.526573,-2.25701 0.950633,-4.540145 1.525443,-6.787098 0.0724,-0.436126 0.53862,-0.560732 0.90039,-0.675292 2.19269,-0.649165 4.46779,-0.956661 6.71071,-1.384757 2.77554,-0.233133 5.56113,-0.196951 8.34269,-0.110535 0.65519,-0.04015 0.87225,0.721521 1.21392,1.141568 2.04397,3.402592 4.32911,6.644396 6.49165,9.970618 0.38387,0.606961 0.73961,1.260142 1.30034,1.728426 0.66725,0.522552 1.84701,0.19696 2.02588,-0.673284 1.34456,-4.236655 2.86598,-8.411011 4.44367,-12.565264 z"
     id="path32"
     style="fill:#00a0d4" />
  <path
     d="m 71.184472,30.538335 c 4.059795,-0.428087 8.167826,-0.452205 12.233652,-0.08039 3.133278,0.211022 6.264546,0.496417 9.355619,1.063181 0.578822,0.144709 1.376713,0.03016 1.70431,0.65319 0.920489,1.455095 1.605831,3.042836 2.194702,4.656702 1.947496,4.608475 3.131269,9.484248 4.421565,14.305753 1.27823,4.445679 2.08616,9.01195 2.86396,13.566156 0.3276,2.156512 0.68936,4.309009 0.93254,6.477585 0.29746,2.212788 0.64716,4.421561 0.78584,6.652436 -0.82804,0.980789 -1.97162,1.58774 -3.02676,2.277103 -2.01382,1.302356 -4.126119,2.437891 -6.174105,3.683962 -2.072104,1.324466 -4.42558,2.098238 -6.708713,2.974505 -0.530587,-1.748519 -0.681322,-3.581457 -1.075243,-5.360136 -0.566763,-2.586616 -0.89235,-5.219451 -1.481222,-7.802042 -0.07035,-0.407993 -0.327597,-0.777796 -0.727548,-0.916464 -2.160535,0.277345 -4.132149,1.3144 -6.268566,1.706314 -0.564754,0.104513 -1.219949,0.299466 -1.469164,0.87426 -0.150735,0.625057 -0.06231,1.280245 -0.06432,1.917356 0.1025,3.237789 -0.01809,6.481601 0.205,9.715375 -4.913961,-0.13667 -9.827922,-0.619025 -14.643404,-1.613876 -1.00691,-0.215047 -2.039946,-0.339653 -2.992591,-0.749654 -0.06231,-2.273078 0.317548,-4.520041 0.484361,-6.779058 0.253235,-3.141316 0.357744,-6.298711 0.856175,-9.413901 0.512499,-3.595528 1.10338,-7.176995 1.720389,-10.754437 0.669264,-4.154263 1.728428,-8.232146 2.658965,-12.33213 0.550685,-2.658971 1.479213,-5.221469 2.118329,-7.858319 0.596912,-2.078135 0.966714,-4.218578 1.674164,-6.262538 0.10652,-0.209025 0.140686,-0.558724 0.422059,-0.600929 z"
     id="path34"
     style="fill:#00a0d4" />
  <path
     d="m 190.97458,31.712051 c 1.67015,-0.130638 3.33828,-0.295442 5.01245,-0.420048 0.5145,-0.04626 1.03102,0.03821 1.53749,0.138678 0.21706,0.966717 0.17485,1.965583 0.28741,2.946372 0.62504,7.291554 0.34367,14.63536 1.17573,21.912842 0.24117,2.271081 0.51853,4.542152 0.71549,6.819256 0.0302,0.695394 0.0502,1.396811 0.21304,2.080142 0.83004,0.381858 1.74651,0.190929 2.61675,0.102505 3.61161,-0.283387 7.22122,-0.651183 10.8469,-0.635104 0.0663,3.107151 -0.0924,6.218326 0.12058,9.325477 0.0523,3.318174 0.15878,6.640381 0.0924,9.960562 -6.00328,0.568781 -11.99248,1.280245 -17.99173,1.883191 -5.25965,0.373819 -10.50322,0.996859 -15.77694,1.165676 -0.31754,-1.583715 -0.65519,-3.165434 -0.90441,-4.763221 0.54466,-0.297449 1.19181,-0.598922 1.3928,-1.242055 0.62906,-4.819498 0.11255,-9.68121 0.10048,-14.52081 -0.008,-4.162293 -0.60896,-8.29042 -0.87024,-12.440658 -0.45622,-4.620529 -1.025,-9.235036 -1.92941,-13.789243 -0.18088,-0.830047 -0.25122,-1.808819 -1.01897,-2.333379 -0.26127,-0.960676 -0.37985,-1.949504 -0.42809,-2.940331 2.34545,-0.811961 4.80544,-1.203875 7.20313,-1.824898 2.51426,-0.574803 5.03455,-1.159654 7.60509,-1.424954 z"
     id="path36"
     style="fill:#00a0d4" />
  <path
     d="m 154.28569,39.570369 c 4.4115,-1.21593 9.01797,-1.436999 13.57016,-1.288275 2.66098,0.01009 5.30788,0.438133 7.88646,1.081267 1.06519,4.606468 1.48926,9.325477 1.97162,14.018361 0.31955,4.120088 0.83607,8.224097 0.99485,12.356249 0.11053,4.735088 0.34568,9.486256 -0.15476,14.20928 -4.52607,1.179757 -9.23905,1.784711 -13.91786,1.487253 -1.20789,-0.13666 -2.42382,-0.05828 -3.63372,-0.158771 -1.44706,-0.14471 -2.87603,-0.428087 -4.31304,-0.639119 -0.25725,-4.831562 -0.18288,-9.67317 -0.52857,-14.500707 -0.27535,-5.697781 -0.57883,-11.395563 -0.98079,-17.087322 -0.21102,-3.167442 -0.47632,-6.330868 -0.89435,-9.478216 z"
     id="path38"
     style="fill:#00a0d4" />
  <path
     d="m 81.743961,55.451808 c 0.02813,-0.403968 0.424068,-0.884306 0.858184,-0.62303 0.482352,0.677299 0.669264,1.505339 0.946616,2.277103 0.253234,0.807937 0.659214,1.644016 0.420048,2.508229 -0.872253,0.476323 -1.836957,0.751661 -2.829798,0.803922 0.01809,-1.674166 0.329607,-3.322207 0.60495,-4.966224 z"
     id="path40"
     style="fill:#010303" />
  <path
     d="m 167.1931,91.688781 c -0.38278,0.0098 -0.76716,0.09435 -1.13949,0.16971 -2.35146,0.504452 -4.67523,1.16074 -7.0066,1.74559 -2.35749,0.745631 -4.77398,1.302203 -7.0551,2.278965 -0.64715,0.259255 -1.32103,0.589816 -2.03652,0.557619 -1.60784,-0.03818 -3.18852,-0.272599 -4.80037,-0.242443 -2.43186,-0.09647 -4.82725,0.511776 -7.24905,0.630352 -0.69137,0.05427 -1.37141,0.12559 -2.06077,0.193955 -0.002,0.494405 0.002,1.006732 0,1.503147 -0.81999,0.06431 -1.64476,0.152379 -2.44867,0.315176 -0.18892,1.422938 0.14973,2.846068 0.19395,4.266998 0.24725,2.87201 0.3335,5.76501 -0.0242,8.63098 -0.18491,1.63196 -0.50681,3.56295 -1.98804,4.53368 -0.9245,0.28338 -1.83795,-0.3304 -2.49716,-0.92128 -1.25412,-1.25613 -2.18302,-2.81105 -2.76385,-4.4852 -0.6572,-1.84098 -0.79756,-3.82654 -1.09099,-5.7459 -0.29544,-2.6047 -0.44316,-5.288644 0.19395,-7.855158 0.1246,-0.600925 0.50598,-1.193278 0.29093,-1.818323 -0.48236,-0.504468 -1.25182,-0.300824 -1.86681,-0.266688 -2.93431,0.438143 -5.91273,0.457655 -8.82493,1.042506 -2.6268,0.528572 -5.10298,1.605291 -7.70969,2.206232 -0.11055,-0.397948 -0.22887,-0.79204 -0.33942,-1.187971 -3.75632,-2.124361 -7.82106,-3.789801 -12.097912,-4.485198 -1.127496,-0.229107 -2.248615,-0.475351 -3.394203,-0.581863 -6.692633,-0.709462 -13.308778,1.160685 -19.589403,3.272982 -2.851907,1.3345 -5.708834,2.676634 -8.26731,4.533686 -2.025879,1.420915 -3.793119,3.169175 -5.503459,4.945835 -0.699411,0.7597 -1.751654,1.02584 -2.521408,1.69711 -1.459115,1.19784 -2.874444,2.49133 -3.927579,4.07304 -1.828917,2.84788 -2.745037,6.16324 -3.394203,9.45528 -0.89637,4.38337 -0.408968,8.91833 0.581863,13.2374 0.781812,3.31817 2.499262,6.29988 4.436709,9.06737 1.049116,1.48927 2.263953,2.87319 3.636647,4.07304 3.006661,2.65494 6.197413,5.14277 9.84319,6.86114 1.390782,0.6773 2.90687,1.04718 4.363976,1.55164 4.11808,1.47117 8.425535,2.4105 12.776752,2.83658 l 4.848862,0 c 1.849014,-0.13064 3.670534,-0.38528 5.503458,-0.65459 2.321317,-0.42207 4.582028,-1.10019 6.86114,-1.69711 1.88117,-0.48034 3.71033,-1.16439 5.43073,-2.06076 0.3115,-0.18892 0.66766,-0.36946 0.84855,-0.70309 0.14668,-0.95867 0.0101,-1.94462 0,-2.90932 0.52656,-0.412 1.05948,-0.81829 1.60012,-1.21221 0.0945,-2.76145 -0.0458,-5.50987 0.0727,-8.26731 0.81598,0.96069 1.53661,2.00641 2.52141,2.81234 1.56162,1.31039 3.27219,2.45802 5.04282,3.46694 3.15338,1.43299 6.49977,2.7013 10.0129,2.71536 2.80367,0.11456 5.57594,-0.51784 8.21882,-1.40617 1.98368,-0.67731 3.9123,-1.73411 5.23677,-3.3942 0.50847,-0.67128 1.33712,-0.92345 2.03652,-1.33344 1.93544,-1.06921 3.89914,-2.18055 5.40649,-3.8306 2.9725,-2.76951 5.36384,-6.17997 6.86114,-9.96441 0.87426,-2.26104 1.96219,-4.44461 2.81234,-6.71568 1.25411,1.20789 2.26609,2.6462 3.66089,3.70938 0.62504,0.51452 1.35444,0.91038 1.89105,1.52739 0.5326,0.59289 0.2952,1.46047 0.33942,2.18199 0.0242,3.82264 -0.11644,7.64492 0.0242,11.46756 0.20901,3.897 0.57209,7.78661 1.01826,11.66151 0.0583,0.43411 0.16001,0.85285 0.24244,1.28495 0.99687,0.24319 2.03983,0.17747 3.05478,0.12122 2.67304,-0.22308 5.35787,-0.34496 8.02487,-0.63035 3.01671,-0.25927 6.00017,-0.68614 9.01888,-0.92128 2.38363,-0.35575 4.79445,-0.58717 7.12783,-1.21222 -0.004,-0.7396 -0.0732,-1.47467 -0.16971,-2.20623 0.74563,-0.1869 1.54313,-0.2343 2.23048,-0.60611 0.34971,-0.31956 0.18387,-0.84669 0.19395,-1.2607 -0.59288,-4.75519 -1.34551,-9.49858 -1.72134,-14.2799 -0.20099,-2.67906 -0.79869,-5.31553 -0.92129,-8.00062 5.38426,-4.99837 10.13932,-10.72118 13.81926,-17.09224 1.63798,-2.73333 3.02003,-5.62696 3.70938,-8.7522 -0.60897,-0.747648 -1.52969,-1.105463 -2.3517,-1.551636 -1.85303,-0.964698 -3.79024,-1.731556 -5.72166,-2.521408 -2.35146,-1.043087 -4.83364,-1.720617 -7.32178,-2.351698 -2.20675,-0.562747 -4.42437,-1.179313 -6.69143,-1.454659 -0.22509,0.490395 -0.38717,0.996546 -0.63035,1.478903 -0.0985,0.271319 -0.47184,0.251862 -0.67884,0.121222 -0.57279,-0.231124 -1.02771,-0.775818 -1.67286,-0.775818 -0.47833,0.313523 -0.68827,0.851095 -0.94553,1.333437 -1.31039,2.729304 -2.78338,5.374075 -4.19426,8.049107 -0.3276,0.62506 -0.69707,1.23347 -1.091,1.81833 -1.42696,-0.89638 -2.53941,-2.18042 -3.66089,-3.41845 -0.99284,-1.147598 -2.13831,-2.156037 -3.05478,-3.36996 -1.28627,-1.609837 -2.31192,-3.407982 -3.20025,-5.261015 -0.12762,-0.01909 -0.23607,-0.02751 -0.36366,-0.02424 z M 92.69033,118.06659 c 1.879163,0.0322 3.751545,0.003 5.62468,0.16971 1.006911,0.0623 2.0578,-0.004 3.03054,0.31518 0.40598,0.14671 0.42045,0.65248 0.46064,1.01826 0.0422,0.83205 0.1098,1.64689 0.24244,2.47292 -2.715235,-0.0764 -5.426827,-0.41541 -8.146084,-0.26669 -1.605827,0.1628 -3.218791,-0.12833 -4.824618,0.0485 -1.772643,0.0784 -3.546908,0.11218 -5.309504,0.31517 -0.07637,0.56877 -0.0442,1.12632 0,1.69711 -0.964707,0.0944 -1.938583,0.1535 -2.909317,0.14546 -0.112549,2.99862 0.35939,5.97379 0.315176,8.9704 -1.919359,-1.15765 -3.575374,-2.90465 -4.21851,-5.09131 -0.247205,-1.12749 0.273114,-2.22563 0.727329,-3.22449 1.081272,-2.35147 3.236784,-4.06217 5.576191,-5.06706 2.956417,-1.29632 6.241487,-1.52927 9.431037,-1.50315 z"
     id="path42"
     style="fill:#010303" />
  <path
     d="m 166.11335,92.972769 c 0.23315,-0.02609 0.59692,-0.217055 0.71952,0.100488 1.07122,2.054017 2.36151,3.999506 3.899,5.735971 2.33741,2.624792 4.65471,5.360132 7.68147,7.219202 0.48837,0.29544 1.18176,0.88431 1.69426,0.31554 1.90327,-1.98166 2.97248,-4.56828 4.40347,-6.879544 1.14156,-2.029899 2.00176,-4.198475 3.04685,-6.27661 1.62794,0.180882 3.21367,0.604954 4.78735,1.043087 2.52632,0.625048 5.02651,1.366662 7.45033,2.323332 2.57254,1.069213 5.19332,2.052 7.6091,3.456855 -1.11745,3.51313 -2.74941,6.85342 -4.81548,9.90429 -1.19784,2.03392 -2.65695,3.88696 -4.05779,5.78018 -1.67014,2.19471 -3.49705,4.2648 -5.40234,6.25652 -0.72755,0.74161 -1.38274,1.56362 -2.21279,2.19872 -0.42206,0.37382 -0.94059,0.71749 -1.13755,1.26818 0.10451,1.25211 0.45422,2.47206 0.60495,3.72014 0.76774,5.38626 1.14358,10.82076 1.89122,16.20904 0.13667,0.89838 0.22309,1.80279 0.25927,2.71122 -2.42382,0.63309 -4.92603,0.85818 -7.39003,1.27422 -2.35549,0.29744 -4.71098,0.58284 -7.07049,0.84813 -3.28601,0.33564 -6.58812,0.49038 -9.87615,0.83406 -0.5326,-4.4296 -0.85216,-8.88733 -0.84412,-13.3511 0.012,-3.27798 -0.002,-6.55798 0.0362,-9.83797 -0.0261,-0.52456 0.0804,-1.17573 -0.40598,-1.53146 -1.37872,-1.17976 -3.00465,-2.05804 -4.25274,-3.39054 -0.9446,-1.00289 -2.06808,-1.84098 -2.85994,-2.98053 -0.50044,-0.73357 -1.05514,-1.42897 -1.52544,-2.18063 -0.11858,-1.25814 0.0422,-2.52833 -0.006,-3.7925 0.0804,-3.97739 -0.48035,-7.92464 -0.98883,-11.85983 -0.25926,-1.6601 -0.50446,-3.334253 -0.96068,-4.950137 -0.6572,-0.47833 -1.49127,-0.586858 -2.255,-0.801905 3.9573,-1.244072 7.96685,-2.313285 11.97841,-3.366419 z"
     id="path44"
     style="fill:#00a0d4" />
  <path
     d="m 79.336221,94.65899 c 4.337148,-1.101371 8.885325,-1.720386 13.341052,-1.022984 1.280242,0.25122 2.576563,0.444165 3.828669,0.822008 3.167445,1.081267 6.449448,1.997741 9.281248,3.840726 0.58084,2.43789 0.81197,4.9421 0.92049,7.44229 0.27736,3.36842 0.37785,6.79112 -0.25524,10.12738 -1.10539,-0.18892 -2.19269,-0.46025 -3.27999,-0.72755 -1.19784,-0.29946 -2.43387,-0.32759 -3.651808,-0.48436 -2.532348,-0.30749 -5.088814,-0.40196 -7.635231,-0.26529 -1.752545,0.0302 -3.525188,0.0945 -5.22146,0.58485 -1.601811,0.46829 -3.2197,0.94662 -4.694892,1.74451 -2.250977,1.32445 -4.270826,3.16945 -5.474696,5.51489 -1.153625,2.24695 -1.521419,5.04861 -0.40598,7.38199 0.914459,2.08215 2.707201,3.62167 4.63058,4.75318 2.401711,1.33249 5.273714,1.85505 7.980916,1.3526 1.623917,-0.33765 2.869994,-1.64402 3.569404,-3.09308 0.194951,-0.45623 0.291422,-1.09333 -0.114558,-1.46314 -0.920489,-0.30348 -1.903281,-0.0944 -2.847887,-0.0723 -1.318429,0.0322 -2.636858,0.10853 -3.955287,0.0844 0.008,-2.62681 -0.365783,-5.24156 -0.265293,-7.87037 3.054896,-0.30952 6.12989,-0.22511 9.196845,-0.2653 2.958425,-0.0422 5.908817,0.21907 8.861207,0.34568 0.99285,0.1226 2.01181,0 2.99059,0.22108 0.0562,0.0502 0.16681,0.15275 0.22308,0.205 0.52657,2.16657 0.45824,4.42156 0.58485,6.63637 0.37785,5.14709 0.78584,10.2962 0.77177,15.46138 -0.0161,0.6351 0.0723,1.28628 -0.0624,1.91534 -0.5547,0.52858 -1.25411,0.87427 -1.9073,1.26618 -5.67768,3.19759 -12.209531,4.69087 -18.691137,4.85166 -1.967593,0.0723 -3.937197,-0.10251 -5.882684,-0.38991 -2.076124,-0.34569 -4.091953,-0.95666 -6.139939,-1.43098 -3.267935,-0.73156 -6.300723,-2.2369 -9.194836,-3.88293 -1.756565,-1.29632 -3.60759,-2.50823 -5.090823,-4.12812 -2.785583,-2.92226 -5.042588,-6.35902 -6.505722,-10.12739 -1.20588,-3.03078 -1.746517,-6.2746 -2.056026,-9.50636 -0.08039,-2.03994 -0.134656,-4.09999 0.215049,-6.11983 0.321567,-2.20074 1.057154,-4.32308 1.981663,-6.3369 0.866224,-1.89122 2.389652,-3.34431 3.694012,-4.92603 1.20789,-1.47318 2.71122,-2.65695 4.045728,-4.00754 1.792741,-1.76862 4.01357,-3.00263 6.166066,-4.270824 3.390533,-2.052 7.217192,-3.239797 11.049881,-4.160285 z"
     id="path46"
     style="fill:#00a0d4" />
  <path
     d="m 113.82841,97.930944 c 3.33225,-0.846127 6.78508,-1.059166 10.20778,-1.223969 -0.78584,3.621665 -0.50447,7.363905 0.0161,11.001655 0.23715,1.50131 0.54466,3.00063 1.05916,4.43562 0.74363,2.03995 2.11633,3.88092 3.96735,5.04058 1.40887,0.83407 3.15539,0.58083 4.6346,0.0764 1.37069,-0.43612 2.57857,-1.44505 3.10514,-2.80367 1.12951,-2.75543 1.0672,-5.80028 1.03706,-8.72455 -0.008,-2.45195 -0.26932,-4.89185 -0.31956,-7.341793 1.2521,-0.06032 2.47406,-0.351717 3.71813,-0.496417 3.42068,-0.353725 6.87754,-0.367796 10.2942,0.04024 1.02298,0.128621 2.06406,0.223087 3.05489,0.526567 0.43813,0.610976 0.43613,1.424945 0.62907,2.134403 1.08931,6.59417 1.88318,13.32699 1.10338,20.00355 -0.16079,1.41892 -0.72554,2.74538 -1.28829,4.04372 -0.96068,2.20274 -1.86911,4.4316 -2.9564,6.57807 -0.56677,1.12146 -1.12349,2.26102 -1.89927,3.25586 -0.9848,1.28426 -2.19671,2.36353 -3.3222,3.51716 -2.31328,2.50019 -5.38626,4.104 -8.48538,5.41239 -2.38161,1.20387 -5.09886,1.40083 -7.72164,1.44303 -2.58662,0.0463 -5.19132,-0.29945 -7.64328,-1.14156 -1.77063,-0.59893 -3.40862,-1.51137 -5.08479,-2.32333 -2.61475,-1.23603 -4.79941,-3.21568 -6.69264,-5.37019 -1.025,-1.20186 -1.88117,-2.59867 -2.18063,-4.16832 -0.54264,-2.93029 -0.35372,-5.96107 -1.06117,-8.86523 -0.28138,-0.80995 -1.34657,-0.65922 -1.85304,-1.16568 -0.46024,-1.32446 -0.47029,-2.74539 -0.64113,-4.12411 0.61701,0.12863 1.24408,0.21103 1.86912,0.29544 0.39995,-0.61098 0.76373,-1.26618 0.88029,-1.99774 0.88834,-5.36818 0.14069,-10.80469 -0.26328,-16.178887 1.92539,-0.687356 3.88896,-1.264167 5.83646,-1.879167 z"
     id="path48"
     style="fill:#00a0d4" />
</svg>
